<svg xmlns="http://www.w3.org/2000/svg" width="48" height="48" viewBox="0 0 48 48" fill="none">
  <path d="M24 4C12.95 4 4 12.95 4 24s8.95 20 20 20c1.66 0 3-1.34 3-3 0-.78-.3-1.48-.78-2.02-.46-.52-.76-1.22-.76-2 0-1.66 1.34-3 3-3h3.54C38.24 34 44 28.24 44 21c0-9.39-8.95-17-20-17z" fill="#fce7f3" stroke="#ec4899" stroke-width="2.5"/>
  <circle cx="14" cy="21" r="3" fill="#f87171"/>
  <circle cx="21" cy="13" r="3" fill="#fbbf24"/>
  <circle cx="31" cy="13" r="3" fill="#34d399"/>
  <circle cx="36" cy="21" r="3" fill="#60a5fa"/>
</svg>
